<svg width="11" height="2" viewBox="0 0 11 2" fill="none" xmlns="http://www.w3.org/2000/svg">
<path d="M1.3125 1.9375C1.86478 1.9375 2.3125 1.51777 2.3125 1C2.3125 0.482233 1.86478 0.0625 1.3125 0.0625C0.760215 0.0625 0.3125 0.482233 0.3125 1C0.3125 1.51777 0.760215 1.9375 1.3125 1.9375Z" fill="black"/>
<path d="M5.3125 1.9375C5.86478 1.9375 6.3125 1.51777 6.3125 1C6.3125 0.482233 5.86478 0.0625 5.3125 0.0625C4.76022 0.0625 4.3125 0.482233 4.3125 1C4.3125 1.51777 4.76022 1.9375 5.3125 1.9375Z" fill="black"/>
<path d="M9.3125 1.9375C9.86478 1.9375 10.3125 1.51777 10.3125 1C10.3125 0.482233 9.86478 0.0625 9.3125 0.0625C8.76022 0.0625 8.3125 0.482233 8.3125 1C8.3125 1.51777 8.76022 1.9375 9.3125 1.9375Z" fill="black"/>
</svg>
