<?xml version="1.0" standalone="no"?>
<!DOCTYPE svg PUBLIC "-//W3C//DTD SVG 20010904//EN"
 "http://www.w3.org/TR/2001/REC-SVG-20010904/DTD/svg10.dtd">
<svg version="1.0" xmlns="http://www.w3.org/2000/svg"
 width="1920.000000pt" height="1920.000000pt" viewBox="0 0 1920.000000 1920.000000"
 preserveAspectRatio="xMidYMid meet">
<metadata>
Created by potrace 1.14, written by Peter Selinger 2001-2017
</metadata>
<g transform="translate(0.000000,1920.000000) scale(0.100000,-0.100000)"
fill="#000000" stroke="none">
<path d="M3549 13545 c0 0 -2 -9 -4 -20 -2 -11 -7 -36 -11 -55 -4 -19 -8 -46
-10 -60 -1 -14 -25 -158 -53 -320 -27 -162 -52 -308 -54 -325 -8 -53 -67 -405
-93 -560 -26 -152 -31 -187 -40 -240 -2 -16 -6 -41 -9 -55 -3 -14 -7 -40 -10
-57 -7 -48 -12 -74 -35 -213 -21 -124 -25 -149 -35 -212 -3 -18 -10 -58 -15
-88 -5 -30 -12 -73 -15 -95 -3 -22 -8 -51 -11 -63 -3 -13 -7 -43 -10 -65 -3
-23 -7 -48 -10 -56 -3 -8 -7 -30 -10 -50 -4 -33 -11 -74 -20 -126 -18 -108
-54 -330 -60 -370 -3 -27 -8 -52 -9 -55 -3 -5 -10 -45 -20 -115 -1 -11 -8 -49
-14 -85 -6 -36 -13 -78 -16 -95 -3 -16 -8 -46 -11 -65 -3 -19 -8 -46 -10 -60
-2 -14 -5 -34 -8 -45 -2 -11 -9 -56 -16 -100 -7 -44 -14 -89 -16 -100 -11 -54
-24 -134 -28 -165 -5 -38 -15 -100 -22 -134 -4 -23 -33 -192 -40 -241 -3 -16
-7 -37 -9 -45 -2 -8 -7 -40 -10 -70 -4 -30 -8 -57 -10 -60 -2 -3 -6 -30 -10
-60 -3 -30 -10 -73 -15 -96 -5 -22 -12 -58 -15 -80 -2 -21 -7 -50 -9 -64 -6
-32 -36 -207 -41 -240 -2 -14 -11 -68 -20 -120 -9 -52 -18 -111 -21 -130 -3
-19 -7 -46 -10 -60 -13 -77 -34 -200 -39 -235 -13 -78 -17 -102 -40 -240 -14
-77 -27 -158 -30 -180 -3 -22 -8 -51 -10 -65 -3 -14 -7 -38 -9 -55 -3 -16 -12
-73 -21 -125 -9 -52 -18 -104 -20 -115 -7 -49 -26 -163 -31 -188 l-6 -28 1544
4 c848 2 1561 6 1583 9 22 3 69 9 105 13 106 12 215 29 290 46 25 6 56 13 70
15 35 7 207 53 255 69 525 173 939 475 1201 875 59 91 163 282 177 325 3 11
20 58 37 105 79 220 115 428 113 670 0 90 -10 228 -18 240 -2 3 -6 21 -9 40
-10 62 -14 75 -46 171 -74 220 -191 391 -370 541 -185 154 -431 248 -715 273
-16 2 -33 3 -36 4 -10 2 2 49 15 60 6 5 49 18 95 30 166 41 382 133 526 224
473 298 752 745 802 1282 59 638 -203 1089 -787 1353 -90 41 -311 111 -395
126 -16 3 -39 8 -50 10 -32 6 -108 19 -130 21 -19 3 -77 11 -135 20 -100 15
-402 18 -1632 19 -769 1 -1398 1 -1399 1z m2436 -1130 c280 -40 452 -132 560
-300 87 -136 113 -335 71 -540 -11 -53 -59 -179 -81 -215 -14 -22 -25 -42 -25
-45 0 -14 -64 -98 -118 -156 -172 -186 -429 -306 -737 -344 -37 -5 -1070 -9
-1163 -6 -8 1 -11 11 -7 34 3 17 10 57 15 87 5 30 12 73 15 95 3 22 10 63 16
90 5 28 11 65 14 83 2 18 6 45 9 60 6 30 13 68 21 127 6 40 22 133 29 170 2
11 9 55 16 98 6 43 13 88 16 100 2 12 26 159 54 327 28 168 52 315 55 326 l5
22 572 0 c413 0 598 -4 663 -13z m-280 -2559 c38 -9 155 -36 175 -41 95 -20
245 -110 335 -200 132 -131 194 -279 199 -480 9 -280 -74 -496 -259 -680 -165
-163 -389 -263 -680 -301 -22 -3 -51 -8 -65 -11 -14 -3 -328 -7 -698 -9 l-674
-3 6 47 c3 26 8 58 11 72 11 62 53 320 61 375 2 17 6 41 9 55 3 14 10 57 16
95 6 39 17 106 24 150 8 44 17 98 20 120 3 22 7 47 10 55 2 8 6 38 10 65 3 28
8 57 10 65 2 8 6 33 10 55 13 93 76 475 86 528 l12 58 676 -4 c372 -2 690 -7
706 -11z"/>
<path d="M8834 11883 c7 -41 19 -156 31 -288 4 -38 8 -81 10 -95 2 -14 7 -52
10 -85 22 -220 34 -336 40 -375 2 -14 6 -56 10 -95 3 -38 8 -86 10 -105 11
-96 23 -204 30 -275 2 -27 9 -93 15 -145 5 -52 12 -115 15 -140 5 -50 12 -118
20 -200 3 -30 10 -93 15 -140 13 -117 18 -165 25 -235 3 -33 7 -73 10 -90 3
-16 7 -61 10 -100 3 -38 8 -88 11 -110 2 -22 6 -58 9 -80 10 -96 17 -162 20
-190 2 -16 6 -57 10 -90 3 -33 8 -79 10 -102 8 -69 14 -124 20 -188 4 -33 8
-76 11 -95 2 -19 9 -84 14 -145 6 -60 13 -121 15 -135 2 -14 6 -54 9 -90 3
-36 8 -83 11 -105 13 -112 17 -145 21 -200 2 -33 6 -69 8 -80 2 -11 7 -56 11
-100 4 -44 9 -87 10 -95 2 -8 6 -46 10 -85 3 -38 8 -83 10 -100 2 -16 7 -61
10 -100 3 -38 8 -81 10 -95 3 -14 7 -56 11 -95 3 -38 7 -81 9 -95 2 -14 7 -51
10 -82 l7 -58 718 0 718 0 102 233 c57 127 113 255 126 284 13 28 28 62 33 75
5 13 108 248 229 523 121 275 299 682 397 905 98 223 185 423 195 445 10 22
30 67 45 100 31 70 48 108 50 115 1 3 13 31 28 64 15 32 27 60 27 62 0 2 13
32 29 66 15 35 41 92 56 128 36 82 42 90 71 90 30 0 28 14 60 -290 2 -25 7
-64 9 -87 8 -67 13 -119 25 -233 6 -58 13 -121 15 -140 2 -19 7 -62 10 -95 2
-33 7 -78 10 -100 3 -22 7 -58 10 -80 2 -22 8 -85 14 -140 6 -55 13 -125 16
-155 4 -30 8 -66 10 -80 4 -22 13 -112 20 -195 1 -16 5 -50 8 -75 4 -25 9 -72
12 -105 7 -72 14 -137 20 -185 5 -38 11 -89 20 -185 3 -33 8 -71 10 -85 2 -14
6 -56 10 -95 3 -38 8 -81 10 -95 2 -14 7 -56 10 -95 4 -38 8 -81 10 -95 6 -59
17 -157 20 -180 2 -14 7 -56 10 -95 3 -38 10 -97 14 -130 5 -33 7 -63 4 -67
-2 -5 322 -8 720 -8 l724 0 48 108 c26 59 58 131 71 160 13 29 36 80 50 115
14 34 36 85 49 112 13 28 38 84 55 125 18 41 40 93 50 115 10 22 98 222 195
443 97 222 187 427 199 455 13 29 43 97 66 151 23 54 46 106 50 115 5 9 64
142 130 296 67 154 131 300 142 325 27 58 332 757 364 833 14 32 37 86 53 120
16 34 74 166 129 292 148 339 321 733 343 782 10 23 19 44 19 47 0 2 15 37 34
78 18 40 46 102 61 138 15 36 31 69 36 75 5 5 9 13 9 17 0 5 -309 7 -686 6
-598 -3 -688 -5 -695 -18 -5 -8 -61 -148 -124 -310 -64 -162 -120 -304 -125
-315 -10 -21 -197 -496 -361 -915 -55 -140 -106 -268 -114 -285 -7 -16 -45
-113 -85 -215 -40 -102 -78 -198 -85 -215 -7 -16 -34 -84 -60 -150 -81 -209
-136 -349 -150 -380 -7 -16 -52 -130 -100 -252 -69 -175 -92 -223 -106 -223
-23 0 -27 15 -34 130 -3 52 -8 111 -10 130 -2 19 -6 76 -9 126 -4 49 -8 110
-11 135 -2 24 -7 82 -10 129 -3 47 -8 101 -10 120 -2 19 -6 80 -10 135 -4 55
-8 116 -10 135 -1 19 -6 73 -9 120 -4 47 -9 105 -11 130 -2 25 -6 83 -10 130
-3 47 -8 105 -10 130 -3 25 -7 81 -10 125 -3 44 -7 103 -10 130 -5 52 -12 142
-20 260 -3 39 -8 101 -11 139 -6 73 -9 110 -19 246 -3 47 -8 108 -11 135 -2
28 -6 82 -9 120 -3 39 -8 102 -11 140 -3 39 -7 88 -9 110 -11 154 -18 243 -20
265 -2 14 -3 33 -4 43 -1 16 -40 17 -677 17 l-675 0 -18 -42 c-10 -24 -62
-151 -115 -283 -53 -132 -101 -249 -106 -260 -5 -11 -52 -128 -106 -260 -53
-132 -102 -253 -110 -270 -13 -30 -484 -1191 -589 -1450 -31 -77 -63 -154 -71
-172 -8 -17 -14 -34 -14 -37 0 -3 -9 -25 -19 -49 -11 -23 -47 -112 -81 -197
-34 -85 -67 -166 -74 -180 -8 -14 -19 -42 -25 -62 -10 -30 -18 -38 -37 -38
-20 0 -24 5 -25 33 0 17 -2 48 -4 67 -3 42 -16 242 -20 325 -2 33 -6 92 -9
130 -3 39 -8 115 -11 170 -3 55 -8 125 -10 155 -2 30 -7 98 -10 150 -3 52 -8
122 -10 155 -3 33 -7 110 -11 170 -3 61 -7 130 -9 155 -2 25 -6 90 -9 145 -4
55 -9 129 -11 164 -3 35 -8 109 -10 165 -3 55 -7 124 -10 151 -2 28 -7 95 -10
150 -3 55 -8 125 -10 155 -2 30 -7 96 -10 145 -3 50 -8 128 -11 175 -9 140
-12 189 -20 315 -4 66 -8 131 -9 145 -2 14 -3 37 -4 53 l-1 27 -690 0 -690 0
4 -27z"/>
</g>
</svg>
